<?xml version="1.0" encoding="utf-8"?>
<!-- Generator: Adobe Illustrator 26.0.3, SVG Export Plug-In . SVG Version: 6.00 Build 0)  -->
<svg version="1.1" id="pineapple-icon" xmlns="http://www.w3.org/2000/svg" xmlns:xlink="http://www.w3.org/1999/xlink" x="0px" y="0px"
	 viewBox="0 0 300 300" style="enable-background:new 0 0 300 300;" xml:space="preserve">
<style type="text/css">
	.st0{fill:#FFFFFF;}
	.st1{fill:#99CC33;}
	.st2{fill:#FFCC66;}
	.st3{fill:#669900;}
	.st4{fill:#CC9933;}
	.st5{fill:#663333;}
</style>
<g id="outline">
	<path class="st0" d="M150.11,300c-28.9,0-48.25-6.38-60.88-20.07c-13.88-15.04-20.34-39.18-20.34-75.95
		c0-26.25,6.43-48.94,19.1-67.44c9.73-14.21,20.9-22.5,27.43-26.52c-14.17-12.22-22.98-29.19-29.73-44.23
		c-5.78-12.86-9.24-23.26-9.39-23.7c-1.22-3.67-0.63-7.57,1.62-10.69c2.26-3.14,5.87-5.01,9.65-5.01c1.3,0,2.61,0.22,3.88,0.65
		c0.72,0.25,17.51,6,34.57,14.91c5.84-18.39,13.68-34.25,14.02-34.93c1.89-3.81,5.59-6.27,9.79-6.58l0.01-0.03l0.88-0.01
		c0.78,0,1.61,0.1,2.54,0.3l0.19,0.04c0.17,0.03,0.33,0.07,0.5,0.11c0.11,0.03,0.22,0.07,0.32,0.11L154.4,1
		c0.39,0.12,0.78,0.26,1.16,0.42l0.61,0.27v0.02c1.76,0.89,3.26,2.21,4.37,3.85c0.32,0.46,0.61,0.95,0.86,1.45
		c0.34,0.68,8.2,16.59,14.02,34.93c17.06-8.92,33.85-14.67,34.57-14.91c1.27-0.43,2.58-0.65,3.88-0.65c0.96,0,1.92,0.12,2.85,0.36
		c3.21,0.82,5.98,2.97,7.59,5.92c1.59,2.9,1.88,6.24,0.82,9.42c-0.15,0.44-3.62,10.86-9.39,23.7
		c-7.97,17.74-16.19,30.95-24.43,39.25c-1.84,1.85-3.43,3.43-4.92,4.69c14.6,6.99,44.69,29.29,44.69,94.06
		c0,40.67-6.78,66.15-21.33,80.19C195.98,297.27,175.94,300,150.11,300z"/>
</g>
<g id="pineapple">
	<path class="st1" d="M210.33,28.18c-0.91,0.31-18.23,6.26-35.51,15.42c-5.81-18.67-13.91-35.1-14.33-35.95
		c-4-8.05-15.52-8.06-19.52,0c-0.43,0.86-8.53,17.28-14.33,35.95c-17.28-9.16-34.61-15.11-35.51-15.42
		c-8.51-2.89-16.69,5.21-13.85,13.75c0.15,0.44,3.63,10.86,9.35,23.6c7.92,17.63,16.76,33.14,30.01,44.34
		c3.31,2.8,7.96,3.37,11.84,1.46c14.22-6.99,29.99-7.14,44.5,0c1.53,0.75,3.17,1.12,4.81,1.12c4.72,0,7.44-2.53,12.83-7.96
		c8.15-8.22,16.3-21.32,24.22-38.95c5.72-12.74,9.2-23.16,9.35-23.6C227.01,33.4,218.84,25.28,210.33,28.18z"/>
	<path class="st2" d="M150.73,103.59c-18.4,0.35-28.99,4.32-28.99,4.32s-51.82,22.21-51.82,96.23s26.79,95,80.19,95"/>
</g>
<g id="shadows">
	<path class="st3" d="M210.33,28.18c-0.91,0.31-18.23,6.26-35.51,15.42c-5.81-18.67-13.91-35.1-14.33-35.95
		c-1.84-3.7-5.62-6.05-9.76-6.05v104.44c7.86,0,15.34,1.89,22.25,5.29c1.53,0.75,3.17,1.12,4.81,1.12c4.72,0,7.44-2.53,12.83-7.96
		c8.15-8.22,16.3-21.32,24.22-38.95c5.72-12.74,9.2-23.16,9.35-23.6C227.01,33.4,218.84,25.28,210.33,28.18z"/>
	<path class="st4" d="M150.11,299.14c50.58,0,79.97-10.26,79.97-95.19s-51.89-96.04-51.89-96.04s-9.07-4.66-27.47-4.32"/>
</g>
<g id="structure">
	<g>
		<path class="st5" d="M139.14,293.63c-0.11,0.29-0.18,0.59-0.13,0.9C139.02,294.23,139.07,293.93,139.14,293.63z"/>
		<path class="st5" d="M212.69,223.11c-0.79,0.51-1.57,1.05-2.35,1.56c-6.52-6.36-13.18-12.56-19.97-18.63
			c6.1-4.87,12.29-9.61,18.62-14.19c0.65-0.49,1.31-0.95,1.97-1.42c0.69,0.67,1.38,1.34,2.06,2.02c1.63,1.54,4.74,4.73,6.24,6.4
			c0,0,6.12,6.52,6.12,6.52c-4.47-5.25-9.13-10.34-13.93-15.3c4.55-3.25,9.28-6.24,13.93-9.38c-4.82,2.91-9.54,5.96-14.21,9.09
			c-5.65-5.82-11.5-11.45-17.55-16.86c4.54-3.19,9.14-6.28,13.83-9.23c0,0,4.13-2.31,6.88-3.86c2.31,2.24,4.46,4.61,6.26,7.28
			c-1.57-2.78-3.57-5.25-5.75-7.57c1.11-0.62,1.91-1.07,1.91-1.07c-0.66,0.33-1.31,0.67-1.97,1.01c-2.48-2.62-5.18-5.06-7.79-7.5
			c-4.2-3.78-8.56-7.35-12.97-10.87c0.17-0.12,0.34-0.24,0.51-0.36c0,0,8.65-5.72,8.65-5.72c-3.18,1.9-6.31,3.86-9.42,5.87
			c-0.82-0.65-1.64-1.31-2.46-1.96c-6.11-4.71-12.31-9.29-18.61-13.75c3.87-2.29,7.84-4.41,11.97-6.21
			c-4.26,1.72-8.38,3.72-12.4,5.91c-4.66-3.29-9.37-6.51-14.16-9.61c3.96,2.99,8.61,6.48,13.37,10.05
			c-7.51,4.15-14.66,8.96-21.64,14c-7.25-4.78-14.65-9.32-22.18-13.62c3.83-2.73,7.73-5.36,11.73-7.86c0,0,4.56-2.57,4.56-2.57
			c-6.05,2.75-11.74,6.16-17.21,9.91c-4.51-2.56-9.05-5.05-13.63-7.44c4.43,2.51,8.84,5.09,13.2,7.73
			c-5.91,4.08-11.57,8.55-17.13,13.05c-1.22,1.02-2.42,2.08-3.63,3.11c-3.47-2.24-6.96-4.45-10.47-6.63
			c3.42,2.26,6.82,4.55,10.2,6.85c-6.76,5.79-13.35,11.77-19.68,18.04c-1.52-0.9-3.04-1.81-4.58-2.68c1.49,0.93,2.96,1.88,4.44,2.82
			c-2.34,2.32-4.64,4.66-6.91,7.05c2.47-2.24,4.94-4.48,7.42-6.72c6.91,4.4,13.72,8.94,20.43,13.63
			c-6.01,5.22-11.93,10.53-17.78,15.93c-4.56-3.15-9.15-6.24-13.77-9.27c4.52,3.14,9.01,6.33,13.46,9.56
			c-5.38,4.97-10.68,10.01-15.93,15.12c5.51-4.89,11.01-9.79,16.54-14.67c7.29,5.3,14.49,10.72,21.58,16.29
			c-6.51,5.78-12.97,11.63-19.36,17.55c-6.13-4.15-12.39-8.07-18.76-11.76c6.17,3.91,12.24,8.01,18.21,12.27
			c-5.29,4.91-10.54,9.86-15.74,14.87c5.42-4.82,10.85-9.66,16.28-14.48c7,5.02,13.83,10.28,20.46,15.79
			c-5.86,5.68-11.65,11.43-17.36,17.26c-5.57-4.19-11.44-7.96-17.63-11.17c5.89,3.62,11.51,7.62,16.91,11.9
			c-2.53,2.6-5.05,5.21-7.55,7.84c2.6-2.55,5.21-5.09,7.82-7.63c7.07,5.64,13.73,11.78,20.07,18.25c-2.32,2.62-4.63,5.24-6.91,7.88
			c2.36-2.57,4.74-5.12,7.12-7.67c5.5,5.64,10.75,11.52,15.79,17.54c-1.78-2.43-3.56-4.86-5.42-7.24
			c-3.07-3.79-6.29-7.49-9.64-11.08c5.58-5.95,11.22-11.84,16.94-17.66c6.12,6.05,11.99,12.35,17.53,18.93
			c-2.5,3.07-4.89,6.23-7.07,9.53c-0.98,1.71-2.58,3.7-3.05,5.7c0.11-0.29,0.25-0.56,0.37-0.83c0.85-1.64,1.89-3.17,2.95-4.68
			c2.28-3.16,4.72-6.2,7.26-9.16c1.17,1.39,2.33,2.79,3.47,4.2c1.42,1.69,3.48,4.3,4.71,6.08c0,0,4.56,6.21,4.56,6.21
			c-3.81-5.88-7.92-11.54-12.27-17.02c2.12-2.46,4.3-4.88,6.53-7.25c3.9-4.14,7.91-8.15,12.03-12.06c2.22,2.33,4.89,5.14,5.52,5.8
			c1.09,1.23,3.74,4.24,4.88,5.54c2.06,2.21,4,4.52,5.92,6.86c-5.07,5.61-9.74,11.46-13.92,17.22c4.71-5.55,9.55-11.07,14.6-16.39
			c2.01,2.48,4,4.98,6.04,7.44c-1.92-2.57-3.87-5.11-5.86-7.63c6.27-6.6,12.87-12.87,19.97-18.5c2.47,2.53,4.92,5.07,7.35,7.62
			c0,0-6.85-7.52-7.12-7.81c4.49-3.54,9.17-6.83,14.1-9.76c0,0,3.92-2.16,3.92-2.16c-6.54,2.86-12.8,6.69-18.74,11.15
			c-5.32-5.8-10.8-11.47-16.4-17.05c6.94-5.59,14.09-10.92,21.41-16c0.85,0.79,1.7,1.57,2.54,2.35c0,0,3.72,3.6,3.72,3.6
			c0,0,7.46,7.19,7.46,7.19c-4.37-4.55-8.82-9.01-13.33-13.42c4.79-3.32,9.65-6.54,14.56-9.67
			C221.07,217.9,216.86,220.48,212.69,223.11z M210.64,190.14c-7.18,4.84-14.19,9.93-21.03,15.23
			c-5.98-5.33-12.06-10.56-18.24-15.67c6.95-5.58,14.04-10.99,21.31-16.13C198.83,178.92,204.82,184.45,210.64,190.14z
			 M150.42,239.42c-5.88-5.56-11.91-10.95-18.09-16.19c5.3-4.79,10.64-9.52,16.04-14.2c0.57-0.49,1.14-0.98,1.71-1.48
			c6.09,5.1,12.08,10.3,18,15.6C162.07,228.43,156.19,233.87,150.42,239.42z M169,223.99c6.26,5.63,12.42,11.37,18.49,17.21
			c-6.56,5.23-12.9,10.72-18.96,16.51c-5.56-6.01-11.31-11.83-17.24-17.48C157.1,234.72,163,229.29,169,223.99z M149.53,240.27
			c-5.99,5.79-11.85,11.71-17.6,17.74c-5.99-5.98-12.28-11.66-18.82-17.05c6.04-5.68,12.12-11.3,18.26-16.86
			C137.54,229.37,143.6,234.75,149.53,240.27z M150.38,173.08c-7.21-5.48-14.51-10.83-21.93-16.02c7.01-5.64,14.13-11.14,21.4-16.42
			c7.42,5.05,14.71,10.3,21.83,15.76C164.46,161.8,157.38,167.4,150.38,173.08z M172.48,157.02c6.68,5.15,13.21,10.49,19.58,16.01
			c-7.39,5.01-14.54,10.4-21.53,15.98c-6.32-5.2-12.74-10.27-19.24-15.24C158.27,168.08,165.33,162.49,172.48,157.02z
			 M149.43,173.85c-4.32,3.51-8.6,7.05-12.88,10.59c-2.21,1.86-4.41,3.74-6.6,5.61c-7.21-5.48-14.55-10.81-22.03-15.92
			c6.53-5.59,13.12-11.1,19.8-16.49C135.04,162.94,142.28,168.34,149.43,173.85z M150.32,174.54c6.47,5,12.88,10.08,19.21,15.26
			c-6.6,5.3-13.08,10.75-19.5,16.2c-2.33-1.94-4.67-3.88-7.02-5.78c-4.01-3.19-8.06-6.34-12.15-9.46
			C137.3,185.29,143.78,179.88,150.32,174.54z M149.13,206.77c-0.52,0.44-1.05,0.89-1.57,1.33c-5.41,4.74-10.78,9.54-16.09,14.4
			c-6.33-5.34-12.81-10.51-19.4-15.53c5.96-5.21,11.95-10.38,17.97-15.51C136.5,196.44,142.86,201.54,149.13,206.77z M150.97,206.78
			c6.37-5.52,12.83-10.98,19.41-16.29c6.21,5.09,12.34,10.27,18.4,15.52c-6.77,5.27-13.39,10.73-19.86,16.38
			C163.04,217.07,157.05,211.86,150.97,206.78z M206.35,152.72c2.64,2.32,5.36,4.6,7.89,7.05c-7.34,3.77-14.41,8.02-21.25,12.62
			c-6.3-5.61-12.8-11-19.48-16.16c6.41-4.89,12.9-9.68,19.47-14.36C197.51,145.4,201.98,149,206.35,152.72z M169.04,127.43
			c0.94-0.59,1.9-1.16,2.86-1.74c6.58,4.95,13.31,10.05,18.63,14.24c0.72,0.56,1.43,1.13,2.15,1.69
			c-6.8,4.45-13.45,9.13-19.97,13.99c-7.12-5.47-14.44-10.69-21.93-15.65C156.76,135.64,162.84,131.45,169.04,127.43z M127.2,126.06
			c7.35,4.46,14.6,9.12,21.73,13.95c-3.2,2.32-6.37,4.68-9.52,7.04c-4.01,3.07-7.96,6.2-11.9,9.36c-6.92-4.83-13.92-9.53-21-14.1
			C113.22,136.64,120.08,131.16,127.2,126.06z M86.14,160.26c6.61-5.98,13.27-11.94,20.08-17.71c6.92,4.72,13.78,9.52,20.58,14.43
			c-6.7,5.39-13.29,10.91-19.79,16.54C100.19,168.88,93.23,164.44,86.14,160.26z M89.26,190.41c5.98-5.28,11.98-10.54,18.04-15.74
			c7.4,5.19,14.67,10.57,21.84,16.09c-6.01,5.14-11.97,10.34-17.89,15.58C104.03,200.85,96.69,195.55,89.26,190.41z M91.72,224.92
			c6.51-5.78,13.03-11.55,19.59-17.29c6.5,5.12,12.91,10.37,19.21,15.74c-6.1,5.6-12.13,11.28-18.08,17.03
			C105.77,234.94,98.85,229.77,91.72,224.92z M114.56,276.89c-6.18-6.58-12.85-12.73-20.04-18.17c5.87-5.69,11.77-11.33,17.72-16.93
			c6.52,5.45,12.83,11.14,18.88,17.09C125.5,264.79,119.98,270.8,114.56,276.89z M156.01,270.53c-2.14,2.39-4.24,4.83-6.29,7.31
			c-5.36-6.71-11.1-13.12-17.16-19.22c5.86-5.94,11.8-11.8,17.84-17.55c5.22,4.87,10.34,9.84,15.37,14.92
			c0.35,0.37,1.18,1.24,2.19,2.29C163.84,262.24,159.85,266.31,156.01,270.53z M205.13,258.67c-7.15,5.41-13.81,11.74-19.89,18.43
			c-5.08-6.38-10.41-12.54-15.93-18.54c6.12-5.77,12.46-11.29,19-16.58C194,247.47,199.61,253.03,205.13,258.67z M188.2,240.64
			c-5.98-5.93-12.1-11.73-18.34-17.39c6.44-5.67,13-11.2,19.7-16.56c6.89,5.98,13.67,12.08,20.35,18.28
			C202.45,229.87,195.2,235.09,188.2,240.64z"/>
	</g>
</g>
</svg>
